<?xml version="1.0" encoding="UTF-8" standalone="no"?>
<!-- Created with Inkscape (http://www.inkscape.org/) -->

<svg
   width="48"
   height="48"
   viewBox="0 0 12.7 12.7"
   version="1.1"
   id="svg1"
   inkscape:version="1.3.2 (091e20e, 2023-11-25, custom)"
   sodipodi:docname="logotic2.svg"
   xmlns:inkscape="http://www.inkscape.org/namespaces/inkscape"
   xmlns:sodipodi="http://sodipodi.sourceforge.net/DTD/sodipodi-0.dtd"
   xmlns="http://www.w3.org/2000/svg"
   xmlns:svg="http://www.w3.org/2000/svg">
  <sodipodi:namedview
     id="namedview1"
     pagecolor="#ffffff"
     bordercolor="#000000"
     borderopacity="0.25"
     inkscape:showpageshadow="2"
     inkscape:pageopacity="0.0"
     inkscape:pagecheckerboard="0"
     inkscape:deskcolor="#d1d1d1"
     inkscape:document-units="mm"
     inkscape:zoom="16.1875"
     inkscape:cx="24"
     inkscape:cy="23.938224"
     inkscape:window-width="1920"
     inkscape:window-height="991"
     inkscape:window-x="-9"
     inkscape:window-y="-9"
     inkscape:window-maximized="1"
     inkscape:current-layer="layer1" />
  <defs
     id="defs1" />
  <g
     inkscape:label="Layer 1"
     inkscape:groupmode="layer"
     id="layer1">
    <circle
       style="fill:#ffffff;fill-opacity:0.7764706;stroke-width:0.0468313"
       id="path6"
       cx="6.3499999"
       cy="6.3499999"
       r="6.3499999" />
    <path
       id="rect3"
       style="fill:#3d3d3d;stroke-width:0.0435011"
       d="m 11.474131,6.3500002 c 0,0.1976624 -0.159128,0.3567913 -0.356791,0.3567913 H 1.5826606 c -0.1976624,0 -0.3567913,-0.1591289 -0.3567913,-0.3567913 0,-0.1976624 0.1591289,-0.3567914 0.3567913,-0.3567914 H 11.11734 c 0.197663,0 0.356791,0.159129 0.356791,0.3567914 z M 6.3500002,1.2258691 c 0.1976624,0 0.3567913,0.1591289 0.3567913,0.3567913 V 11.11734 c 0,0.197662 -0.1591289,0.356791 -0.3567913,0.356791 -0.1976624,0 -0.3567914,-0.159129 -0.3567914,-0.356791 V 1.5826604 c 0,-0.1976624 0.159129,-0.3567913 0.3567914,-0.3567913 z" />
    <path
       id="path5"
       style="fill:#1e72c8;fill-opacity:1;stroke-width:0.0321637"
       d="M 3.836075,2.1651763 A 1.7329649,1.7329649 0 0 0 2.1030319,3.8978645 1.7329649,1.7329649 0 0 0 3.836075,5.6309077 1.7329649,1.7329649 0 0 0 5.5691184,3.8978645 1.7329649,1.7329649 0 0 0 3.836075,2.1651763 Z m 0,0.7297024 A 1.0032954,1.0032954 0 0 1 4.839416,3.8978645 1.0032954,1.0032954 0 0 1 3.836075,4.9012052 1.0032954,1.0032954 0 0 1 2.8327343,3.8978645 1.0032954,1.0032954 0 0 1 3.836075,2.8948787 Z" />
    <path
       id="path3"
       style="fill:#1e72c8;fill-opacity:1;stroke-width:0.0321637"
       d="M 8.7709429,7.0860246 A 1.7329649,1.7329649 0 0 0 7.0378998,8.8187128 1.7329649,1.7329649 0 0 0 8.7709429,10.551756 1.7329649,1.7329649 0 0 0 10.503987,8.8187128 1.7329649,1.7329649 0 0 0 8.7709429,7.0860246 Z m 0,0.7297024 A 1.0032954,1.0032954 0 0 1 9.7742838,8.8187128 1.0032954,1.0032954 0 0 1 8.7709429,9.8220533 1.0032954,1.0032954 0 0 1 7.7676022,8.8187128 1.0032954,1.0032954 0 0 1 8.7709429,7.815727 Z" />
    <path
       id="path9"
       style="fill:#4b9770;fill-opacity:1;stroke-width:0.0344783"
       d="m 10.265343,5.3711686 -0.02127,0.021273 c -0.164991,0.1649901 -0.4306422,0.1649903 -0.5956324,1e-7 L 7.276544,3.0205476 c -0.16499,-0.1649899 -0.16499,-0.4306422 2e-7,-0.5956324 l 0.021273,-0.021273 c 0.1649901,-0.1649904 0.4306422,-0.1649904 0.5956321,0 l 2.3718947,2.371894 c 0.164989,0.1649901 0.164989,0.4306419 -1e-6,0.5956324 z m -0.02127,-2.9675254 0.02127,0.021273 c 0.164989,0.1649905 0.164989,0.4306423 0,0.5956323 L 7.8934491,5.3924417 c -0.1649898,0.16499 -0.4306418,0.16499 -0.5956323,0 l -0.021272,-0.021273 c -0.1649904,-0.1649903 -0.1649904,-0.4306423 0,-0.5956326 L 9.6484377,2.4036426 c 0.1649903,-0.1649905 0.4306413,-0.1649905 0.5956323,0 z" />
    <path
       id="path4"
       style="fill:#4b9770;fill-opacity:1;stroke-width:0.0344783"
       d="m 5.330475,10.292018 -0.021272,0.02127 c -0.1649911,0.164991 -0.4306426,0.164991 -0.5956328,0 L 2.3416759,7.941396 C 2.1766858,7.7764061 2.1766858,7.5107538 2.341676,7.3457636 l 0.021273,-0.021272 c 0.16499,-0.1649904 0.4306421,-0.1649904 0.595632,0 l 2.371894,2.371894 c 0.1649893,0.1649903 0.1649893,0.4306414 0,0.5956324 z M 5.309203,7.3244916 5.330475,7.3457646 c 0.1649893,0.1649905 0.1649893,0.4306423 0,0.5956323 L 2.958581,10.31329 c -0.1649899,0.16499 -0.4306419,0.16499 -0.5956323,0 l -0.021273,-0.02127 c -0.1649904,-0.16499 -0.1649904,-0.4306413 0,-0.5956324 L 4.7135696,7.324491 c 0.1649902,-0.1649905 0.4306409,-0.1649905 0.595632,0 z" />
  </g>
</svg>
