<?xml version="1.0" encoding="UTF-8" standalone="no"?>
<!-- Created with Inkscape (http://www.inkscape.org/) -->

<svg
   width="120"
   height="120"
   viewBox="0 0 120 120"
   version="1.1"
   id="svg1"
   xml:space="preserve"
   inkscape:version="1.3.2 (091e20e, 2023-11-25, custom)"
   sodipodi:docname="logotic.svg"
   xmlns:inkscape="http://www.inkscape.org/namespaces/inkscape"
   xmlns:sodipodi="http://sodipodi.sourceforge.net/DTD/sodipodi-0.dtd"
   xmlns="http://www.w3.org/2000/svg"
   xmlns:svg="http://www.w3.org/2000/svg"><sodipodi:namedview
     id="namedview1"
     pagecolor="#ffffff"
     bordercolor="#000000"
     borderopacity="0.25"
     inkscape:showpageshadow="2"
     inkscape:pageopacity="0.0"
     inkscape:pagecheckerboard="0"
     inkscape:deskcolor="#d1d1d1"
     inkscape:document-units="px"
     inkscape:zoom="6.475"
     inkscape:cx="60"
     inkscape:cy="60"
     inkscape:window-width="1920"
     inkscape:window-height="991"
     inkscape:window-x="-9"
     inkscape:window-y="-9"
     inkscape:window-maximized="1"
     inkscape:current-layer="layer1" /><defs
     id="defs1" /><g
     inkscape:label="Layer 1"
     inkscape:groupmode="layer"
     id="layer1"><circle
       style="display:inline;fill:#cef3ff;fill-opacity:0.77464789;stroke-width:0.177"
       id="path2"
       cx="59.922771"
       cy="59.999996"
       r="59.922771" /><path
       style="fill:#3d3d3d;fill-opacity:1;stroke-width:0.195619"
       d="m 112.21359,76.385822 c 0,1.418398 -1.14189,2.560286 -2.56029,2.560286 H 10.192235 c -1.4183986,0 -2.560286,-1.141888 -2.560286,-2.560286 0,-1.418398 1.1418874,-2.560286 2.560286,-2.560286 H 109.6533 c 1.4184,0 2.56029,1.141888 2.56029,2.560286 z M 76.308606,7.7091811 c 1.418399,0 2.560285,1.1418874 2.560285,2.5602859 v 99.461073 c 0,1.41839 -1.141886,2.56028 -2.560285,2.56028 -1.418398,0 -2.560285,-1.14189 -2.560285,-2.56028 V 10.269467 c 0,-1.4183985 1.141887,-2.5602859 2.560285,-2.5602859 z m -33.113019,2.2e-6 c 1.418398,0 2.560286,1.1418874 2.560286,2.5602857 v 99.461071 c 0,1.4184 -1.141888,2.56028 -2.560286,2.56028 -1.418398,0 -2.560284,-1.14188 -2.560284,-2.56028 V 10.269469 c 0,-1.4183983 1.141886,-2.5602857 2.560284,-2.5602857 z M 112.21359,43.272803 c 0,1.418398 -1.14189,2.560285 -2.56029,2.560285 H 10.192235 c -1.4183986,0 -2.560286,-1.141887 -2.560286,-2.560285 0,-1.418397 1.1418874,-2.560285 2.560286,-2.560285 H 109.6533 c 1.4184,0 2.56029,1.141888 2.56029,2.560285 z"
       id="rect5" /><path
       id="path5"
       style="fill:#1e72c8;fill-opacity:1;stroke-width:0.195619"
       d="M 25.401083,16.049286 A 10.539838,10.539838 0 0 0 14.860769,26.587441 10.539838,10.539838 0 0 0 25.401083,37.127756 10.539838,10.539838 0 0 0 35.941398,26.587441 10.539838,10.539838 0 0 0 25.401083,16.049286 Z m 0,4.438027 a 6.102011,6.102011 0 0 1 6.102288,6.100128 6.102011,6.102011 0 0 1 -6.102288,6.102287 6.102011,6.102011 0 0 1 -6.102287,-6.102287 6.102011,6.102011 0 0 1 6.102287,-6.100128 z" /><path
       id="path8"
       style="fill:#1e72c8;fill-opacity:1;stroke-width:0.195619"
       d="M 92.434284,81.624157 A 10.539838,10.539838 0 0 0 81.89397,92.162312 10.539838,10.539838 0 0 0 92.434284,102.70263 10.539838,10.539838 0 0 0 102.9746,92.162312 10.539838,10.539838 0 0 0 92.434284,81.624157 Z m 0,4.438027 a 6.102011,6.102011 0 0 1 6.102288,6.100128 6.102011,6.102011 0 0 1 -6.102288,6.102287 6.102011,6.102011 0 0 1 -6.102287,-6.102287 6.102011,6.102011 0 0 1 6.102287,-6.100128 z" /><path
       id="rect9"
       style="fill:#b20c0c;fill-opacity:1;stroke-width:0.209696"
       d="m 68.840989,68.788824 -0.129378,0.12938 c -1.003466,1.003466 -2.619155,1.003467 -3.62262,10e-7 L 50.663202,54.492416 c -1.003465,-1.003465 -1.003465,-2.619154 1e-6,-3.62262 l 0.12938,-0.129379 c 1.003465,-1.003465 2.619153,-1.003465 3.622617,0 l 14.425789,14.42579 c 1.003466,1.003464 1.003466,2.619151 0,3.622617 z M 68.711611,50.740421 68.840992,50.8698 c 1.003464,1.003467 1.003464,2.619153 0,3.622618 L 54.415201,68.918207 c -1.003464,1.003466 -2.619151,1.003466 -3.622618,0 l -0.129379,-0.129379 c -1.003467,-1.003466 -1.003467,-2.619153 0,-3.622619 L 65.088992,50.740421 c 1.003466,-1.003467 2.619154,-1.003467 3.622619,0 z" /><path
       id="path9"
       style="fill:#b20c0c;fill-opacity:1;stroke-width:0.209696"
       d="m 101.52318,35.548032 -0.12938,0.12938 c -1.00347,1.003466 -2.619153,1.003467 -3.622618,1e-6 L 83.345393,21.251624 c -1.003465,-1.003464 -1.003465,-2.619153 10e-7,-3.622619 l 0.12938,-0.129379 c 1.003465,-1.003466 2.619153,-1.003466 3.622617,0 l 14.425789,14.425789 c 1.00346,1.003465 1.00346,2.619151 0,3.622617 z m -0.12938,-18.048403 0.12938,0.129379 c 1.00346,1.003467 1.00346,2.619154 0,3.622618 l -14.425788,14.42579 c -1.003464,1.003465 -2.619151,1.003465 -3.622618,0 l -0.129379,-0.129379 c -1.003467,-1.003466 -1.003467,-2.619154 0,-3.62262 L 97.771183,17.499629 c 1.003466,-1.003467 2.619147,-1.003467 3.622617,0 z" /></g></svg>
